<svg xmlns="http://www.w3.org/2000/svg" viewBox="0 0 256 256" width="256" height="256">
  <defs>
    <linearGradient id="bg2" x1="0%" y1="0%" x2="100%" y2="100%">
      <stop offset="0%" style="stop-color:#1A1A2E"/>
      <stop offset="100%" style="stop-color:#16213E"/>
    </linearGradient>
    <linearGradient id="accent2" x1="0%" y1="0%" x2="100%" y2="100%">
      <stop offset="0%" style="stop-color:#6C63FF"/>
      <stop offset="100%" style="stop-color:#48C9B0"/>
    </linearGradient>
  </defs>
  <circle cx="128" cy="128" r="128" fill="url(#bg2)"/>
  <rect x="54" y="70" width="18" height="42" rx="5" fill="url(#accent2)" opacity="0.55"/>
  <rect x="80" y="56" width="18" height="56" rx="5" fill="url(#accent2)" opacity="0.7"/>
  <rect x="106" y="40" width="22" height="72" rx="5" fill="url(#accent2)" opacity="0.85"/>
  <rect x="136" y="28" width="18" height="84" rx="5" fill="url(#accent2)" opacity="0.7"/>
  <rect x="162" y="48" width="18" height="64" rx="5" fill="url(#accent2)" opacity="0.6"/>
  <rect x="188" y="64" width="18" height="48" rx="5" fill="url(#accent2)" opacity="0.5"/>
  <polyline points="63,70 89,56 117,40 145,28 171,48 197,64"
    fill="none" stroke="#48C9B0" stroke-width="3" stroke-linecap="round" stroke-linejoin="round" opacity="0.85"/>
  <polygon points="197,64 191,73 194,70 203,58" fill="#48C9B0" opacity="0.85"/>
  <circle cx="145" cy="28" r="3.5" fill="#48C9B0"/>
</svg>
